<svg xmlns="http://www.w3.org/2000/svg" width="3840" height="1240" fill="none" viewBox="0 0 3840 1240"><path fill="url(#paint0_linear_87_66)" d="M3712.33 0H0V1240H3840V0H3712.33ZM3584.67 9.92H3702.36V123.01H3584.67V9.92ZM3702.35 246.02H3584.66V132.93H3702.35V246.02ZM3702.35 369.02H3584.66V255.93H3702.35V369.02ZM3702.35 492.03H3584.66V378.94H3702.35V492.03ZM3702.35 615.04H3584.66V501.95H3702.35V615.04ZM3702.35 738.05H3584.66V624.96H3702.35V738.05ZM3702.35 861.06H3584.66V747.97H3702.35V861.06ZM3702.35 984.06H3584.66V870.97H3702.35V984.06ZM3702.35 1107.07H3584.66V993.98H3702.35V1107.07ZM137.65 993.98H255.34V1107.07H137.65V993.98ZM137.65 870.98H255.34V984.07H137.65V870.98ZM137.65 747.97H255.34V861.06H137.65V747.97ZM137.65 624.96H255.34V738.05H137.65V624.96ZM137.65 501.95H255.34V615.04H137.65V501.95ZM137.65 378.94H255.34V492.03H137.65V378.94ZM137.65 255.94H255.34V369.03H137.65V255.94ZM137.65 132.93H255.34V246.02H137.65V132.93ZM3574.69 246.02H3457V132.93H3574.69V246.02ZM3574.69 369.02H3457V255.93H3574.69V369.02ZM3574.69 492.03H3457V378.94H3574.69V492.03ZM3574.69 615.04H3457V501.95H3574.69V615.04ZM3574.69 738.05H3457V624.96H3574.69V738.05ZM3574.69 861.06H3457V747.97H3574.69V861.06ZM3574.69 984.06H3457V870.97H3574.69V984.06ZM265.31 870.98H383V984.07H265.31V870.98ZM265.31 747.97H383V861.06H265.31V747.97ZM265.31 624.96H383V738.05H265.31V624.96ZM265.31 501.95H383V615.04H265.31V501.95ZM265.31 378.94H383V492.03H265.31V378.94ZM265.31 255.94H383V369.03H265.31V255.94ZM3447.02 369.02H3329.33V255.93H3447.02V369.02ZM3447.02 492.03H3329.33V378.94H3447.02V492.03ZM3447.02 615.04H3329.33V501.95H3447.02V615.04ZM3447.02 738.05H3329.33V624.96H3447.02V738.05ZM3447.02 861.06H3329.33V747.97H3447.02V861.06ZM392.98 747.97H510.67V861.06H392.98V747.97ZM392.98 624.96H510.67V738.05H392.98V624.96ZM392.98 501.95H510.67V615.04H392.98V501.95ZM392.98 378.94H510.67V492.03H392.98V378.94ZM3319.35 492.03H3201.66V378.94H3319.35V492.03ZM3319.35 615.04H3201.66V501.95H3319.35V615.04ZM3319.35 738.05H3201.66V624.96H3319.35V738.05ZM520.65 624.96H638.34V738.05H520.65V624.96ZM520.65 501.95H638.34V615.04H520.65V501.95ZM3191.69 615.04H3074V501.95H3191.69V615.04ZM3064.02 615.04H2946.33V501.95H3064.02V615.04ZM2936.35 615.04H2818.66V501.95H2936.35V615.04ZM2808.68 615.04H2690.99V501.95H2808.68V615.04ZM2681.02 615.04H2563.33V501.95H2681.02V615.04ZM2553.35 615.04H2435.66V501.95H2553.35V615.04ZM2425.68 615.04H2307.99V501.95H2425.68V615.04ZM2298.01 615.04H2180.32V501.95H2298.01V615.04ZM2170.35 615.04H2052.66V501.95H2170.35V615.04ZM2042.68 615.04H1924.99V501.95H2042.68V615.04ZM1915.01 615.04H1797.32V501.95H1915.01V615.04ZM1787.34 615.04H1669.65V501.95H1787.34V615.04ZM1659.68 615.04H1541.99V501.95H1659.68V615.04ZM1532.01 615.04H1414.32V501.95H1532.01V615.04ZM1404.34 615.04H1286.65V501.95H1404.34V615.04ZM1276.67 615.04H1158.98V501.95H1276.67V615.04ZM1149.01 615.04H1031.32V501.95H1149.01V615.04ZM1021.34 615.04H903.65V501.95H1021.34V615.04ZM893.67 615.04H775.98V501.95H893.67V615.04ZM766 615.04H648.31V501.95H766V615.04ZM648.32 624.96H766.01V738.05H648.32V624.96ZM775.98 624.96H893.67V738.05H775.98V624.96ZM903.65 624.96H1021.34V738.05H903.65V624.96ZM1031.32 624.96H1149.01V738.05H1031.32V624.96ZM1158.98 624.96H1276.67V738.05H1158.98V624.96ZM1286.65 624.96H1404.34V738.05H1286.65V624.96ZM1414.32 624.96H1532.01V738.05H1414.32V624.96ZM1541.99 624.96H1659.68V738.05H1541.99V624.96ZM1669.65 624.96H1787.34V738.05H1669.65V624.96ZM1797.32 624.96H1915.01V738.05H1797.32V624.96ZM1924.99 624.96H2042.68V738.05H1924.99V624.96ZM2052.66 624.96H2170.35V738.05H2052.66V624.96ZM2180.32 624.96H2298.01V738.05H2180.32V624.96ZM2307.99 624.96H2425.68V738.05H2307.99V624.96ZM2435.66 624.96H2553.35V738.05H2435.66V624.96ZM2563.33 624.96H2681.02V738.05H2563.33V624.96ZM2690.99 624.96H2808.68V738.05H2690.99V624.96ZM2818.66 624.96H2936.35V738.05H2818.66V624.96ZM2946.33 624.96H3064.02V738.05H2946.33V624.96ZM3074 624.96H3191.69V738.05H3074V624.96ZM3191.69 492.03H3074V378.94H3191.69V492.03ZM3064.02 492.03H2946.33V378.94H3064.02V492.03ZM2936.35 492.03H2818.66V378.94H2936.35V492.03ZM2808.68 492.03H2690.99V378.94H2808.68V492.03ZM2681.02 492.03H2563.33V378.94H2681.02V492.03ZM2553.35 492.03H2435.66V378.94H2553.35V492.03ZM2425.68 492.03H2307.99V378.94H2425.68V492.03ZM2298.01 492.03H2180.32V378.94H2298.01V492.03ZM2170.35 492.03H2052.66V378.94H2170.35V492.03ZM2042.68 492.03H1924.99V378.94H2042.68V492.03ZM1915.01 492.03H1797.32V378.94H1915.01V492.03ZM1787.34 492.03H1669.65V378.94H1787.34V492.03ZM1659.68 492.03H1541.99V378.94H1659.68V492.03ZM1532.01 492.03H1414.32V378.94H1532.01V492.03ZM1404.34 492.03H1286.65V378.94H1404.34V492.03ZM1276.67 492.03H1158.98V378.94H1276.67V492.03ZM1149.01 492.03H1031.32V378.94H1149.01V492.03ZM1021.34 492.03H903.65V378.94H1021.34V492.03ZM893.67 492.03H775.98V378.94H893.67V492.03ZM766 492.03H648.31V378.94H766V492.03ZM638.34 492.03H520.65V378.94H638.34V492.03ZM520.65 747.97H638.34V861.06H520.65V747.97ZM648.32 747.97H766.01V861.06H648.32V747.97ZM775.98 747.97H893.67V861.06H775.98V747.97ZM903.65 747.97H1021.34V861.06H903.65V747.97ZM1031.32 747.97H1149.01V861.06H1031.32V747.97ZM1158.98 747.97H1276.67V861.06H1158.98V747.97ZM1286.65 747.97H1404.34V861.06H1286.65V747.97ZM1414.32 747.97H1532.01V861.06H1414.32V747.97ZM1541.99 747.97H1659.68V861.06H1541.99V747.97ZM1669.65 747.97H1787.34V861.06H1669.65V747.97ZM1797.32 747.97H1915.01V861.06H1797.32V747.97ZM1924.99 747.97H2042.68V861.06H1924.99V747.97ZM2052.66 747.97H2170.35V861.06H2052.66V747.97ZM2180.32 747.97H2298.01V861.06H2180.32V747.97ZM2307.99 747.97H2425.68V861.06H2307.99V747.97ZM2435.66 747.97H2553.35V861.06H2435.66V747.97ZM2563.33 747.97H2681.02V861.06H2563.33V747.97ZM2690.99 747.97H2808.68V861.06H2690.99V747.97ZM2818.66 747.97H2936.35V861.06H2818.66V747.97ZM2946.33 747.97H3064.02V861.06H2946.33V747.97ZM3074 747.97H3191.69V861.06H3074V747.97ZM3201.66 747.97H3319.35V861.06H3201.66V747.97ZM3319.35 369.02H3201.66V255.93H3319.35V369.02ZM3191.69 369.02H3074V255.93H3191.69V369.02ZM3064.02 369.02H2946.33V255.93H3064.02V369.02ZM2936.35 369.02H2818.66V255.93H2936.35V369.02ZM2808.68 369.02H2690.99V255.93H2808.68V369.02ZM2681.02 369.02H2563.33V255.93H2681.02V369.02ZM2553.35 369.02H2435.66V255.93H2553.35V369.02ZM2425.68 369.02H2307.99V255.93H2425.68V369.02ZM2298.01 369.02H2180.32V255.93H2298.01V369.02ZM2170.35 369.02H2052.66V255.93H2170.35V369.02ZM2042.68 369.02H1924.99V255.93H2042.68V369.02ZM1915.01 369.02H1797.32V255.93H1915.01V369.02ZM1787.34 369.02H1669.65V255.93H1787.34V369.02ZM1659.68 369.02H1541.99V255.93H1659.68V369.02ZM1532.01 369.02H1414.32V255.93H1532.01V369.02ZM1404.34 369.02H1286.65V255.93H1404.34V369.02ZM1276.67 369.02H1158.98V255.93H1276.67V369.02ZM1149.01 369.02H1031.32V255.93H1149.01V369.02ZM1021.34 369.02H903.65V255.93H1021.34V369.02ZM893.67 369.02H775.98V255.93H893.67V369.02ZM766 369.02H648.31V255.93H766V369.02ZM638.34 369.02H520.65V255.93H638.34V369.02ZM510.67 369.02H392.98V255.93H510.67V369.02ZM392.98 870.98H510.67V984.07H392.98V870.98ZM520.65 870.98H638.34V984.07H520.65V870.98ZM648.32 870.98H766.01V984.07H648.32V870.98ZM775.98 870.98H893.67V984.07H775.98V870.98ZM903.65 870.98H1021.34V984.07H903.65V870.98ZM1031.32 870.98H1149.01V984.07H1031.32V870.98ZM1158.98 870.98H1276.67V984.07H1158.98V870.98ZM1286.65 870.98H1404.34V984.07H1286.65V870.98ZM1414.32 870.98H1532.01V984.07H1414.32V870.98ZM1541.99 870.98H1659.68V984.07H1541.99V870.98ZM1669.65 870.98H1787.34V984.07H1669.65V870.98ZM1797.32 870.98H1915.01V984.07H1797.32V870.98ZM1924.99 870.98H2042.68V984.07H1924.99V870.98ZM2052.66 870.98H2170.35V984.07H2052.66V870.98ZM2180.32 870.98H2298.01V984.07H2180.32V870.98ZM2307.99 870.98H2425.68V984.07H2307.99V870.98ZM2435.66 870.98H2553.35V984.07H2435.66V870.98ZM2563.33 870.98H2681.02V984.07H2563.33V870.98ZM2690.99 870.98H2808.68V984.07H2690.99V870.98ZM2818.66 870.98H2936.35V984.07H2818.66V870.98ZM2946.33 870.98H3064.02V984.07H2946.33V870.98ZM3074 870.98H3191.69V984.07H3074V870.98ZM3201.66 870.98H3319.35V984.07H3201.66V870.98ZM3329.33 870.98H3447.02V984.07H3329.33V870.98ZM3447.02 246.02H3329.33V132.93H3447.02V246.02ZM3319.35 246.02H3201.66V132.93H3319.35V246.02ZM3191.69 246.02H3074V132.93H3191.69V246.02ZM3064.02 246.02H2946.33V132.93H3064.02V246.02ZM2936.35 246.02H2818.66V132.93H2936.35V246.02ZM2808.68 246.02H2690.99V132.93H2808.68V246.02ZM2681.02 246.02H2563.33V132.93H2681.02V246.02ZM2553.35 246.02H2435.66V132.93H2553.35V246.02ZM2425.68 246.02H2307.99V132.93H2425.68V246.02ZM2298.01 246.02H2180.32V132.93H2298.01V246.02ZM2170.35 246.02H2052.66V132.93H2170.35V246.02ZM2042.68 246.02H1924.99V132.93H2042.68V246.02ZM1915.01 246.02H1797.32V132.93H1915.01V246.02ZM1787.34 246.02H1669.65V132.93H1787.34V246.02ZM1659.68 246.02H1541.99V132.93H1659.68V246.02ZM1532.01 246.02H1414.32V132.93H1532.01V246.02ZM1404.34 246.02H1286.65V132.93H1404.34V246.02ZM1276.67 246.02H1158.98V132.93H1276.67V246.02ZM1149.01 246.02H1031.32V132.93H1149.01V246.02ZM1021.34 246.02H903.65V132.93H1021.34V246.02ZM893.67 246.02H775.98V132.93H893.67V246.02ZM766 246.02H648.31V132.93H766V246.02ZM638.34 246.02H520.65V132.93H638.34V246.02ZM510.67 246.02H392.98V132.93H510.67V246.02ZM383 246.02H265.31V132.93H383V246.02ZM265.31 993.98H383V1107.07H265.31V993.98ZM392.98 993.98H510.67V1107.07H392.98V993.98ZM520.65 993.98H638.34V1107.07H520.65V993.98ZM648.32 993.98H766.01V1107.07H648.32V993.98ZM775.98 993.98H893.67V1107.07H775.98V993.98ZM903.65 993.98H1021.34V1107.07H903.65V993.98ZM1031.32 993.98H1149.01V1107.07H1031.32V993.98ZM1158.98 993.98H1276.67V1107.07H1158.98V993.98ZM1286.65 993.98H1404.34V1107.07H1286.65V993.98ZM1414.32 993.98H1532.01V1107.07H1414.32V993.98ZM1541.99 993.98H1659.68V1107.07H1541.99V993.98ZM1669.65 993.98H1787.34V1107.07H1669.65V993.98ZM1797.32 993.98H1915.01V1107.07H1797.32V993.98ZM1924.99 993.98H2042.68V1107.07H1924.99V993.98ZM2052.66 993.98H2170.35V1107.07H2052.66V993.98ZM2180.32 993.98H2298.01V1107.07H2180.32V993.98ZM2307.99 993.98H2425.68V1107.07H2307.99V993.98ZM2435.66 993.98H2553.35V1107.07H2435.66V993.98ZM2563.33 993.98H2681.02V1107.07H2563.33V993.98ZM2690.99 993.98H2808.68V1107.07H2690.99V993.98ZM2818.66 993.98H2936.35V1107.07H2818.66V993.98ZM2946.33 993.98H3064.02V1107.07H2946.33V993.98ZM3074 993.98H3191.69V1107.07H3074V993.98ZM3201.66 993.98H3319.35V1107.07H3201.66V993.98ZM3329.33 993.98H3447.02V1107.07H3329.33V993.98ZM3457 993.98H3574.69V1107.07H3457V993.98ZM3457 9.92H3574.69V123.01H3457V9.92ZM3329.33 9.92H3447.02V123.01H3329.33V9.92ZM3201.66 9.92H3319.35V123.01H3201.66V9.92ZM3074 9.92H3191.69V123.01H3074V9.92ZM2946.33 9.92H3064.02V123.01H2946.33V9.92ZM2818.66 9.92H2936.35V123.01H2818.66V9.92ZM2690.99 9.92H2808.68V123.01H2690.99V9.92ZM2563.33 9.92H2681.02V123.01H2563.33V9.92ZM2435.66 9.92H2553.35V123.01H2435.66V9.92ZM2307.99 9.92H2425.68V123.01H2307.99V9.92ZM2180.32 9.92H2298.01V123.01H2180.32V9.92ZM2052.66 9.92H2170.35V123.01H2052.66V9.92ZM1924.99 9.92H2042.68V123.01H1924.99V9.92ZM1797.32 9.92H1915.01V123.01H1797.32V9.92ZM1669.65 9.92H1787.34V123.01H1669.65V9.92ZM1541.99 9.92H1659.68V123.01H1541.99V9.92ZM1414.32 9.92H1532.01V123.01H1414.32V9.92ZM1286.65 9.92H1404.34V123.01H1286.65V9.92ZM1158.98 9.92H1276.67V123.01H1158.98V9.92ZM1031.32 9.92H1149.01V123.01H1031.32V9.92ZM903.65 9.92H1021.34V123.01H903.65V9.92ZM775.98 9.92H893.67V123.01H775.98V9.92ZM648.32 9.92H766.01V123.01H648.32V9.92ZM520.65 9.92H638.34V123.01H520.65V9.92ZM392.98 9.92H510.67V123.01H392.98V9.92ZM265.31 9.92H383V123.01H265.31V9.92ZM137.65 9.92H255.34V123.01H137.65V9.92ZM9.98 9.92H127.67V123.01H9.98V9.92ZM9.98 132.93H127.67V246.02H9.98V132.93ZM9.98 255.94H127.67V369.03H9.98V255.94ZM9.98 378.94H127.67V492.03H9.98V378.94ZM9.98 501.95H127.67V615.04H9.98V501.95ZM9.98 624.96H127.67V738.05H9.98V624.96ZM9.98 747.97H127.67V861.06H9.98V747.97ZM9.98 870.98H127.67V984.07H9.98V870.98ZM9.98 993.98H127.67V1107.07H9.98V993.98ZM127.67 1230.08H9.98V1116.99H127.67V1230.08ZM255.34 1230.08H137.65V1116.99H255.34V1230.08ZM383 1230.08H265.31V1116.99H383V1230.08ZM510.67 1230.08H392.98V1116.99H510.67V1230.08ZM638.34 1230.08H520.65V1116.99H638.34V1230.08ZM766 1230.08H648.31V1116.99H766V1230.08ZM893.67 1230.08H775.98V1116.99H893.67V1230.08ZM1021.34 1230.08H903.65V1116.99H1021.34V1230.08ZM1149.01 1230.08H1031.32V1116.99H1149.01V1230.08ZM1276.67 1230.08H1158.98V1116.99H1276.67V1230.08ZM1404.34 1230.08H1286.65V1116.99H1404.34V1230.08ZM1532.01 1230.08H1414.32V1116.99H1532.01V1230.08ZM1659.68 1230.08H1541.99V1116.99H1659.68V1230.08ZM1787.34 1230.08H1669.65V1116.99H1787.34V1230.08ZM1915.01 1230.08H1797.32V1116.99H1915.01V1230.08ZM2042.68 1230.08H1924.99V1116.99H2042.68V1230.08ZM2170.35 1230.08H2052.66V1116.99H2170.35V1230.08ZM2298.01 1230.08H2180.32V1116.99H2298.01V1230.08ZM2425.68 1230.08H2307.99V1116.99H2425.68V1230.08ZM2553.35 1230.08H2435.66V1116.99H2553.35V1230.08ZM2681.02 1230.08H2563.33V1116.99H2681.02V1230.08ZM2808.68 1230.08H2690.99V1116.99H2808.68V1230.08ZM2936.35 1230.08H2818.66V1116.99H2936.35V1230.08ZM3064.02 1230.08H2946.33V1116.99H3064.02V1230.08ZM3191.69 1230.08H3074V1116.99H3191.69V1230.08ZM3319.35 1230.08H3201.66V1116.99H3319.35V1230.08ZM3447.02 1230.08H3329.33V1116.99H3447.02V1230.08ZM3574.69 1230.08H3457V1116.99H3574.69V1230.08ZM3702.35 1230.08H3584.66V1116.99H3702.35V1230.08ZM3830.02 1230.08H3712.33V1116.99H3830.02V1230.08ZM3830.02 1107.07H3712.33V993.98H3830.02V1107.07ZM3830.02 984.06H3712.33V870.97H3830.02V984.06ZM3830.02 861.06H3712.33V747.97H3830.02V861.06ZM3830.02 738.05H3712.33V624.96H3830.02V738.05ZM3830.02 615.04H3712.33V501.95H3830.02V615.04ZM3830.02 492.03H3712.33V378.94H3830.02V492.03ZM3830.02 369.02H3712.33V255.93H3830.02V369.02ZM3830.02 246.02H3712.33V132.93H3830.02V246.02ZM3712.33 123.01V9.92H3830.02V123.01H3712.33Z"/><defs><linearGradient id="paint0_linear_87_66" x1="0" x2="3840" y1="0" y2="0" gradientUnits="userSpaceOnUse"><stop stop-color="#000923"/><stop offset=".502" stop-color="#000C40"/><stop offset="1" stop-color="#000923"/></linearGradient></defs></svg>