<svg width="3840" height="1240" viewBox="0 0 3840 1240" fill="none" xmlns="http://www.w3.org/2000/svg">
<g clip-path="url(#clip0_87_82)">
<path d="M3842.5 932.036V930.664L3841.34 929.927C3836.21 926.656 3828.67 921.944 3819.48 916.441L3818.2 918.586L3819.48 916.441C3715.8 854.33 3600 810.121 3525.3 798.227C3418.99 781.306 3332.5 819.855 3262.87 850.892C3252.04 855.715 3241.63 860.358 3231.61 864.582L3232.58 866.886L3231.61 864.582C3110.18 915.789 3023.82 915.302 2902.19 901.558C2879.61 899.005 2855.81 895.996 2830.35 892.776C2718.57 878.641 2574.79 860.459 2361.29 859.176C2172.81 858.04 2057.11 870.838 1971.89 884.084C1948.32 887.749 1927.11 891.44 1907.38 894.875C1855.69 903.873 1814.06 911.119 1766.19 911.566C1699.54 912.193 1648.43 900.907 1616.9 893.946C1613.39 893.17 1610.12 892.447 1607.09 891.801L1606.57 894.246L1607.09 891.801C1428.62 853.687 1294.76 825.1 1200.86 805.696C1107.08 786.315 1052.96 776.048 1034.17 774.653L1034.16 774.653C872.736 762.702 783.198 796.413 705.248 825.761C703.456 826.436 701.67 827.109 699.889 827.778C660.316 842.658 623.6 856.015 581.461 861.364C539.37 866.706 491.747 864.068 430.48 846.74L429.8 849.146L430.48 846.74C414.141 842.119 397.303 836.589 379.912 830.877C373.428 828.747 366.867 826.592 360.227 824.45C335.819 816.575 310.415 808.898 284.119 803.399C231.499 792.395 175.215 790.096 115.881 812.375C60.7695 833.064 22.1154 867.794 -2.22528 894.419L-2.80327 895.051L-2.87206 895.905C-5.74567 931.571 -8.62165 967.241 -11.4977 1002.91C-14.6267 1041.72 -17.7558 1080.53 -20.8821 1119.33L-21.0964 1122L-18.4275 1122.04C1267.7 1141.25 2553.84 1160.47 3839.96 1179.69L3842.5 1179.72V1177.19V932.036Z" fill="url(#paint0_radial_87_82)" stroke="#56A8C1" stroke-width="5"/>
</g>
<defs>
<radialGradient id="paint0_radial_87_82" cx="0" cy="0" r="1" gradientUnits="userSpaceOnUse" gradientTransform="translate(1910.8 975.926) scale(1371.55 1371.55)">
<stop stop-color="#1CA4BA"/>
<stop offset="1" stop-color="#1A89BA"/>
</radialGradient>
<clipPath id="clip0_87_82">
<rect width="3840" height="1240" fill="white"/>
</clipPath>
</defs>
</svg>
