<svg width="3840" height="1240" viewBox="0 0 3840 1240" fill="none" xmlns="http://www.w3.org/2000/svg">
<g clip-path="url(#clip0_91_6)">
<path d="M3842.5 932.036V930.664L3841.34 929.927C3836.21 926.656 3828.67 921.944 3819.48 916.441L3818.2 918.586L3819.48 916.441C3715.8 854.33 3600 810.121 3525.3 798.227C3418.99 781.306 3332.5 819.855 3262.87 850.892C3252.04 855.715 3241.63 860.358 3231.61 864.582L3232.58 866.886L3231.61 864.582C3170.79 890.229 3122.58 902.879 3076.32 907.429C3030.04 911.981 2985.6 908.44 2932.23 901.562C2914.78 899.313 2896.38 896.709 2876.68 893.919C2775.82 879.64 2640.59 860.494 2421.29 859.176C2232.82 858.04 2135.07 870.836 2067.79 884.102C2049.48 887.712 2033.48 891.343 2018.55 894.729C1978.55 903.803 1946.32 911.116 1898.19 911.566C1831.54 912.193 1780.43 900.907 1748.9 893.946C1745.39 893.17 1742.12 892.447 1739.09 891.801C1664.36 875.826 1601.08 848.842 1539.72 822.676C1535.8 821.004 1531.89 819.336 1527.99 817.674C1462.98 790.023 1399.44 764.143 1326.3 754.666L1326.23 754.657L1326.17 754.652C1166.75 742.851 1047.79 771.028 940.477 796.449C936.705 797.342 932.948 798.232 929.203 799.117C818.918 825.178 720.206 846.617 600.406 816.72C491.48 789.537 398.853 774.882 288.115 816.808C260.361 827.315 234.464 842.578 209.786 858.758C199.457 865.53 189.392 872.426 179.493 879.208C165.614 888.718 152.059 898.006 138.554 906.418C92.4176 935.155 48.8254 952.35 1.57201 929.941C-10.8129 924.068 -20.752 923.025 -28.2939 926.946C-35.8133 930.855 -40.0359 939.23 -42.1669 949.925C-46.4316 971.328 -42.8463 1004.7 -36.5284 1041.34C-32.2771 1066 -26.737 1092.39 -21.3776 1117.91C-18.7517 1130.42 -16.1692 1142.72 -13.803 1154.51C-6.56787 1190.55 -1.40591 1221.6 -2.87199 1239.8L-3.08961 1242.5L-0.37941 1242.5L3840 1241.5L3842.5 1241.5V1239V932.036Z" fill="url(#paint0_radial_91_6)" stroke="#56A8C1" stroke-width="5"/>
</g>
<defs>
<radialGradient id="paint0_radial_91_6" cx="0" cy="0" r="1" gradientUnits="userSpaceOnUse" gradientTransform="translate(1910.8 975.925) scale(1371.55 1371.55)">
<stop stop-color="#1CA4BA"/>
<stop offset="1" stop-color="#1A89BA"/>
</radialGradient>
<clipPath id="clip0_91_6">
<rect width="3840" height="1240" fill="white"/>
</clipPath>
</defs>
</svg>
