<svg width="3840" height="1240" viewBox="0 0 3840 1240" fill="none" xmlns="http://www.w3.org/2000/svg">
<g clip-path="url(#clip0_89_2)">
<path d="M3842.5 885.59V882.577L3839.54 883.133C3777.58 894.772 3683.94 901.471 3569.73 901.96C3400.83 902.678 3274.58 874.28 3213.86 860.621C3208.66 859.453 3203.95 858.393 3199.73 857.468C3057.02 826.18 2956.75 835.056 2838.64 853.688C2818.88 856.806 2798.61 860.197 2777.57 863.718C2672.93 881.227 2548.94 901.975 2370.59 908.542C2155.03 916.477 2057.64 896.419 1957.33 875.759L1954.48 875.173C1852.9 854.257 1747.2 832.999 1512.88 839.671C1342.26 844.53 1243.67 860.206 1157.16 873.96C1147.96 875.422 1138.91 876.862 1129.91 878.265C1036.44 892.85 949.874 903.451 788.953 892.896C752.833 890.527 712.621 885.923 667.058 880.707C559.805 868.427 422.902 852.752 239.911 854.85C175.803 854.852 95.6351 864.131 -0.448028 883.148L-2.4649 883.547L-2.46265 885.603C-2.39765 944.961 -2.4301 1002.75 -2.46256 1060.54L-2.46256 1060.54C-2.49502 1118.33 -2.52748 1176.12 -2.46248 1235.48V1239.91V1242.41L0.0374653 1242.41L1920.02 1242.46L3840 1242.5L3842.5 1242.5V1240V885.59Z" fill="url(#paint0_radial_89_2)" stroke="#70D6FF" stroke-width="5"/>
</g>
<defs>
<radialGradient id="paint0_radial_89_2" cx="0" cy="0" r="1" gradientUnits="userSpaceOnUse" gradientTransform="translate(1919.82 1039.65) scale(1365.15 1365.16)">
<stop stop-color="#24D6FF"/>
<stop offset="1" stop-color="#22B0FF"/>
</radialGradient>
<clipPath id="clip0_89_2">
<rect width="3840" height="1240" fill="white"/>
</clipPath>
</defs>
</svg>
